<svg width="57" height="57" viewBox="0 0 57 57" fill="none" xmlns="http://www.w3.org/2000/svg">
<g clip-path="url(#clip0_138_473)">
<path d="M26.5345 21.1271H54.0517C55.68 21.1271 57 22.4471 57 24.0754V41.7651C57 43.3934 55.68 44.7134 54.0517 44.7134H38.3276V47.9548C38.3276 48.572 37.5815 48.8811 37.1451 48.4445L33.4138 44.7134H26.5345C24.9062 44.7134 23.5862 43.3934 23.5862 41.7651V24.0754C23.5862 22.4471 24.9062 21.1271 26.5345 21.1271Z" fill="#C3E678"/>
<path d="M23.5862 24.0754V41.7651C23.5862 41.9766 23.6105 42.1821 23.6529 42.3812C30.5224 39.6236 35.3793 32.9135 35.3793 25.0582C35.3793 23.7087 35.2287 22.3954 34.9568 21.1272H26.5344C24.9062 21.1271 23.5862 22.4471 23.5862 24.0754Z" fill="#A5D76E"/>
<path d="M33.4138 25.0581C33.4138 15.8311 25.9339 8.3512 16.7069 8.3512C7.47992 8.3512 0 15.8311 0 25.0581C0 33.1403 5.73952 39.881 13.3649 41.4293L18.3969 46.4613C18.8612 46.9256 19.6552 46.5967 19.6552 45.94V41.4893C27.4736 40.095 33.4138 33.2773 33.4138 25.0581Z" fill="#FF6464"/>
<path d="M16.7069 37.8387C23.7628 37.8387 29.4828 32.1187 29.4828 25.0628C29.4828 18.0068 23.7628 12.2869 16.7069 12.2869C9.65097 12.2869 3.931 18.0068 3.931 25.0628C3.931 32.1187 9.65097 37.8387 16.7069 37.8387Z" fill="#D2555A"/>
<path d="M16.7075 33.9085C16.7071 33.9085 16.7066 33.9086 16.7062 33.9085C16.1635 33.9085 15.7229 33.468 15.7229 32.9252C15.7229 32.9252 15.7229 32.9248 15.7229 32.9245C15.7229 32.9242 15.7229 32.9242 15.7229 32.9238C15.7229 32.3811 16.1634 31.9405 16.7062 31.9405C16.7065 31.9405 16.707 31.9404 16.7075 31.9405C17.2502 31.9405 17.6908 32.381 17.6908 32.9238V32.9242C17.6908 32.9244 17.6908 32.9246 17.6908 32.925C17.6909 33.468 17.2503 33.9085 16.7075 33.9085Z" fill="white"/>
<path d="M40.2931 38.8168C40.0416 38.8168 39.79 38.7209 39.5982 38.529L34.6844 33.6152C34.3005 33.2315 34.3005 32.6093 34.6844 32.2255C35.0681 31.8418 35.6904 31.8418 36.0741 32.2255L40.2931 36.4443L49.4258 27.3116C49.8095 26.9279 50.4318 26.9279 50.8155 27.3116C51.1994 27.6954 51.1994 28.3176 50.8155 28.7013L40.9879 38.5289C40.7962 38.7209 40.5446 38.8168 40.2931 38.8168Z" fill="white"/>
<path d="M16.7069 29.9763C16.1642 29.9763 15.7241 29.5363 15.7241 28.9935V28.7C15.7241 27.3926 16.5736 26.2595 17.8381 25.8804C19.4864 25.3861 20.6378 23.8376 20.6379 22.1146C20.638 21.0923 20.2214 20.1126 19.4649 19.3561C18.7086 18.5997 17.7291 18.1831 16.7068 18.1831C16.7068 18.1831 16.7067 18.1831 16.7064 18.1831C14.539 18.1832 12.7757 19.9467 12.7757 22.1141C12.7757 22.6569 12.3356 23.0969 11.7929 23.0969C11.2501 23.0969 10.8101 22.6569 10.8101 22.1141C10.8101 18.863 13.455 16.2179 16.7062 16.2175H16.7067C18.2539 16.2175 19.7268 16.8385 20.8545 17.966C21.9823 19.0938 22.6033 20.567 22.603 22.1144C22.6028 24.6984 20.8755 27.021 18.4024 27.7626C17.9759 27.8905 17.6892 28.267 17.6892 28.6995V28.9931C17.6897 29.5365 17.2496 29.9763 16.7069 29.9763Z" fill="white"/>
</g>
<defs>
<clipPath id="clip0_138_473">
<rect width="57" height="57" fill="white"/>
</clipPath>
</defs>
</svg>
