<svg width="47" height="47" viewBox="0 0 47 47" fill="none" xmlns="http://www.w3.org/2000/svg">
<g clip-path="url(#clip0_138_445)">
<mask id="mask0_138_445" style="mask-type:luminance" maskUnits="userSpaceOnUse" x="0" y="0" width="47" height="47">
<path d="M47 0H0V47H47V0Z" fill="white"/>
</mask>
<g mask="url(#mask0_138_445)">
<path d="M33.7812 1.46875C40.2731 1.46875 45.5312 6.72687 45.5312 13.2188C45.5312 17.5809 43.1519 21.3997 39.6122 23.4119C37.8937 24.3959 35.9109 24.9688 33.7812 24.9688C31.6516 24.9688 29.6688 24.3959 27.9503 23.4119C25.2184 21.855 23.1622 19.2259 22.3837 16.0828C22.1487 15.1722 22.0312 14.2028 22.0312 13.2188C22.0312 6.72687 27.2894 1.46875 33.7812 1.46875Z" fill="#FFE6EA"/>
<path d="M33.7812 24.9686C35.9109 24.9686 37.8937 24.3958 39.6122 23.4117L39.6562 23.4999V44.0624C39.6562 44.8702 38.9953 45.5311 38.1875 45.5311H29.375C29.375 45.5311 27.9062 45.5311 27.9062 44.0624V23.4999L27.9503 23.4117C29.6688 24.3958 31.6516 24.9686 33.7812 24.9686Z" fill="#FF3E3E"/>
<path d="M33.7812 10.2812C35.3969 10.2812 36.7188 11.6031 36.7188 13.2188C36.7188 14.8344 35.3969 16.1562 33.7812 16.1562C32.1656 16.1562 30.8438 14.8344 30.8438 13.2188C30.8438 11.6031 32.1656 10.2812 33.7812 10.2812Z" fill="#FF3E3E"/>
<path d="M27.9508 23.4115L27.9068 23.4996V44.0621C27.9068 44.8699 27.2458 45.5308 26.438 45.5308H2.93805C2.13024 45.5308 1.4693 44.8699 1.4693 44.0621V17.6246C1.4693 16.8168 2.13024 16.1558 2.93805 16.1558H10.2818V27.9058H19.0943V16.1558H22.0318L22.3843 16.0824C23.1613 19.2255 25.219 21.8546 27.9508 23.4115Z" fill="#FF3E3E"/>
<path d="M19.0938 16.1562V27.9062H10.2812V16.1562V14.6875H19.0938V16.1562Z" fill="#FFC44D"/>
<path d="M32.3125 45.5312H38.1875C38.9997 45.5312 39.6562 44.8747 39.6562 44.0625V29.375M27.9062 29.375V44.0625C27.9062 44.8747 27.2497 45.5312 26.4375 45.5312H2.9375C2.12528 45.5312 1.46875 44.8747 1.46875 44.0625V17.625C1.46875 16.8128 2.12528 16.1562 2.9375 16.1562H10.2812M10.2812 16.1562V14.6875H17.625M10.2812 16.1562V27.9062H19.0938V22.0312M33.7812 24.9688C27.2923 24.9688 22.0312 19.7077 22.0312 13.2188C22.0312 6.72981 27.2923 1.46875 33.7812 1.46875C40.2702 1.46875 45.5312 6.72981 45.5312 13.2188C45.5312 19.7077 40.2702 24.9688 33.7812 24.9688ZM33.7812 24.9688V33.7812M36.7188 13.2188C36.7188 11.5973 35.4027 10.2812 33.7812 10.2812C32.1598 10.2812 30.8438 11.5973 30.8438 13.2188C30.8438 14.8402 32.1598 16.1562 33.7812 16.1562C35.4027 16.1562 36.7188 14.8402 36.7188 13.2188Z" stroke="black" stroke-width="2.9375" stroke-linecap="round" stroke-linejoin="round"/>
</g>
</g>
<defs>
<clipPath id="clip0_138_445">
<rect width="47" height="47" fill="white"/>
</clipPath>
</defs>
</svg>
