<svg width="53" height="53" viewBox="0 0 53 53" fill="none" xmlns="http://www.w3.org/2000/svg">
<path d="M6.15549 29.2471H12.063L27.6541 14.097L43.19 29.2471H49.0975C49.0975 29.2471 50.1265 28.9439 48.7576 27.823C47.3887 26.7022 29.3629 8.18948 29.3629 8.18948C29.3629 8.18948 28.04 6.28768 25.6972 8.18948C23.3544 10.0913 6.15549 28.31 6.15549 28.31C6.15549 28.31 5.28269 28.9071 6.15549 29.2471Z" fill="#FFD173"/>
<path d="M49.3182 27.1432C48.2708 26.2795 36.2536 13.9959 30.0338 7.61067C29.8408 7.3718 29.1885 6.64599 28.1044 6.4898C27.1397 6.35199 26.1475 6.69193 25.146 7.50042C22.8492 9.36547 7.4143 25.6915 5.57681 27.6485C5.32875 27.8414 4.82344 28.31 4.89694 28.9898C4.93369 29.2654 5.09906 29.7799 5.84325 30.0648L5.99943 30.1199H12.4306L27.6542 15.3281L42.8318 30.1291H49.2263L49.3457 30.0923C49.7224 29.9821 50.2002 29.6513 50.3196 29.0725C50.5125 28.1262 49.6122 27.3912 49.3182 27.1432ZM7.31323 28.3651C10.1338 25.3884 24.2089 10.5231 26.2485 8.86935C26.8457 8.38241 27.3786 8.1711 27.838 8.22623C28.3157 8.29054 28.6097 8.65804 28.6373 8.69479L28.7291 8.80504C30.5207 10.6517 45.9005 26.4357 48.0411 28.3743H43.5485L27.6542 12.8659L11.714 28.3651H7.31323Z" fill="black"/>
<path d="M14.415 31.3418L26.4322 19.2787C26.4322 19.2787 27.4612 17.9098 29.0231 19.2787C30.5849 20.6476 40.8932 31.3418 40.8932 31.3418V44.7646H32.2019C32.2019 44.7646 32.0549 36.9461 32.0549 36.9186C31.9722 32.3616 23.5841 32.3984 23.3085 36.7256C23.0604 40.5384 23.1615 44.7738 23.1615 44.7738H14.415V31.3418Z" fill="#FFD173"/>
<path d="M23.1614 44.7646H32.2019L31.9906 36.3765C31.9906 36.3765 31.7333 33.1517 27.5898 33.5927C27.5898 33.5927 24.6498 33.1609 23.6576 35.2556C23.6576 35.2556 23.2901 35.3475 23.2166 38.3242C23.1431 41.301 23.1614 44.7646 23.1614 44.7646Z" fill="white"/>
<path d="M41.5271 30.7354C41.1045 30.2944 31.182 20.0044 29.6018 18.6171C28.8944 18.0016 28.1594 17.726 27.4152 17.8087C26.5056 17.9005 25.9452 18.4977 25.7798 18.6998L13.533 30.9742V45.6374H41.766V30.9834L41.5271 30.7354ZM32.9277 36.9001C32.9277 36.8726 32.9277 36.6245 32.8633 36.2662C32.8358 36.0273 32.6337 34.6492 31.4485 33.6662C31.4301 33.6478 31.4025 33.6294 31.3842 33.6202C30.4379 32.8485 29.17 32.5361 27.6081 32.7015C27.0385 32.628 25.247 32.5177 23.8964 33.5835C23.8689 33.611 23.8321 33.6386 23.8045 33.657C23.7862 33.6662 23.777 33.6845 23.7586 33.6937C23.731 33.7121 23.7127 33.7397 23.6851 33.758C23.6575 33.7856 23.6208 33.8132 23.5932 33.8499L23.5565 33.8867C23.5197 33.9234 23.483 33.9693 23.4462 34.0061C23.437 34.0153 23.4279 34.0245 23.4279 34.0337C23.3911 34.0796 23.3544 34.1163 23.3176 34.1623C23.3084 34.1807 23.29 34.1898 23.2809 34.2082L23.1982 34.3185C23.1155 34.4379 23.0328 34.5665 22.9593 34.6952C22.7939 34.8973 22.6285 35.228 22.5183 35.9998C22.4815 36.2019 22.454 36.4224 22.4356 36.6429C22.4356 36.6704 22.4356 36.7072 22.4264 36.7348C22.3897 37.1574 22.3621 37.6719 22.3437 38.2874C22.2519 40.5292 22.2519 42.7066 22.2702 43.8642H15.297V31.7092L27.0569 19.9034L27.1304 19.8207C27.1304 19.8207 27.3325 19.5818 27.599 19.5543C27.8378 19.5267 28.1226 19.6645 28.4442 19.9401C29.8315 21.1529 38.6422 30.2852 40.0112 31.7V43.8826H33.0563L32.9277 36.9001ZM24.0985 38.3609C24.1169 37.9016 24.1445 37.433 24.172 36.9736C24.1996 36.6613 24.2272 36.4224 24.2547 36.2478C24.3282 35.8987 24.4568 35.5955 24.6314 35.3475C25.4583 34.2266 27.3876 34.4471 27.4611 34.4655L27.5714 34.4838L27.6908 34.4655C28.8209 34.346 29.6937 34.5206 30.2817 34.9891C30.2909 34.9983 30.3092 35.0075 30.3184 35.0167C30.8237 35.4577 31.0259 36.0641 31.1177 36.4775L31.3015 43.8734H24.0434C24.0342 42.7342 24.0526 40.4097 24.0985 38.3609Z" fill="black"/>
</svg>
