<svg width="43" height="42" viewBox="0 0 43 42" fill="none" xmlns="http://www.w3.org/2000/svg">
<path d="M21.4999 0L15.2918 4.43437L7.6781 5.02831L5.77267 12.4189L0.325104 17.7671L3.61729 24.6551L2.88092 32.25L9.83079 35.4105L14.1469 41.7046L21.4999 39.6621L28.8529 41.7046L33.169 35.4105L40.1189 32.25L39.3825 24.6551L42.6774 17.7644L37.2299 12.4162L35.3217 5.02563L27.7134 4.43437L21.4999 0ZM18.8124 10.75H24.1874V18.8125L22.8437 24.1875H20.1562L18.8124 18.8125V10.75ZM21.4999 26.875C22.2127 26.875 22.8963 27.1581 23.4003 27.6622C23.9043 28.1662 24.1874 28.8497 24.1874 29.5625C24.1874 30.2753 23.9043 30.9588 23.4003 31.4628C22.8963 31.9669 22.2127 32.25 21.4999 32.25C20.7871 32.25 20.1036 31.9669 19.5996 31.4628C19.0956 30.9588 18.8124 30.2753 18.8124 29.5625C18.8124 28.8497 19.0956 28.1662 19.5996 27.6622C20.1036 27.1581 20.7871 26.875 21.4999 26.875Z" fill="#FFD173"/>
</svg>
