<svg width="43" height="43" viewBox="0 0 43 43" fill="none" xmlns="http://www.w3.org/2000/svg">
<path d="M39.8126 2.6875H4.06886C3.81983 2.68891 3.58139 2.78847 3.4053 2.96456C3.2292 3.14066 3.12965 3.37909 3.12823 3.62813V39.3719C3.12823 39.8879 3.55286 40.3125 4.06886 40.3125H7.2213V40.2964C7.25086 40.2991 7.27505 40.3125 7.30192 40.3125C7.57037 40.2989 7.82334 40.1827 8.00853 39.9879C8.19372 39.793 8.29699 39.5345 8.29699 39.2657C8.29699 38.9969 8.19372 38.7384 8.00853 38.5436C7.82334 38.3488 7.57037 38.2325 7.30192 38.2189C7.27236 38.2189 7.24817 38.2324 7.2213 38.2351V38.2109H5.00948V13.5558H38.872V29.0626H30.6939C30.444 29.0633 30.2044 29.1629 30.0277 29.3397C29.8509 29.5165 29.7513 29.756 29.7506 30.0059V38.2163H11.4219V38.2458C11.3869 38.2404 11.36 38.2243 11.3224 38.2243C11.1809 38.2171 11.0393 38.2388 10.9064 38.288C10.7734 38.3373 10.6519 38.413 10.5492 38.5107C10.4464 38.6083 10.3646 38.7259 10.3087 38.8561C10.2528 38.9864 10.224 39.1267 10.224 39.2684C10.224 39.4102 10.2528 39.5504 10.3087 39.6807C10.3646 39.811 10.4464 39.9285 10.5492 40.0261C10.6519 40.1238 10.7734 40.1996 10.9064 40.2488C11.0393 40.298 11.1809 40.3197 11.3224 40.3125C11.3574 40.3125 11.3869 40.2964 11.4219 40.291V40.3125H32.3306L40.7532 31.9248V3.62813C40.7525 3.37887 40.6532 3.14003 40.4769 2.96379C40.3007 2.78754 40.0619 2.68821 39.8126 2.6875ZM31.6345 38.0711V30.9439H38.8263L31.6345 38.0711Z" fill="black"/>
<path d="M5.03637 11.7579C5.02924 11.7579 5.0224 11.7551 5.01736 11.75C5.01232 11.745 5.00949 11.7382 5.00949 11.731V4.59572C5.00949 4.58859 5.01232 4.58176 5.01736 4.57672C5.0224 4.57168 5.02924 4.56885 5.03637 4.56885H38.8451C38.8522 4.56885 38.8591 4.57168 38.8641 4.57672C38.8692 4.58176 38.872 4.58859 38.872 4.59572V11.731C38.872 11.7382 38.8692 11.745 38.8641 11.75C38.8591 11.7551 38.8522 11.7579 38.8451 11.7579H5.03637Z" fill="#FF3E3E"/>
<path d="M11.1263 8.14594C11.1263 8.74751 11.3652 9.32445 11.7906 9.74983C12.216 10.1752 12.7929 10.4142 13.3945 10.4142C13.9961 10.4142 14.573 10.1752 14.9984 9.74983C15.4238 9.32445 15.6628 8.74751 15.6628 8.14594C15.6628 7.54436 15.4238 6.96742 14.9984 6.54204C14.573 6.11666 13.9961 5.87769 13.3945 5.87769C12.7929 5.87769 12.216 6.11666 11.7906 6.54204C11.3652 6.96742 11.1263 7.54436 11.1263 8.14594Z" fill="black"/>
<path d="M12.0667 8.14574C12.0667 8.32009 12.1011 8.49273 12.1678 8.6538C12.2345 8.81488 12.3323 8.96123 12.4556 9.08451C12.5788 9.20779 12.7252 9.30559 12.8863 9.37231C13.0474 9.43903 13.22 9.47337 13.3943 9.47337C13.5687 9.47337 13.7413 9.43903 13.9024 9.37231C14.0635 9.30559 14.2098 9.20779 14.3331 9.08451C14.4564 8.96123 14.5542 8.81488 14.6209 8.6538C14.6876 8.49273 14.722 8.32009 14.722 8.14574C14.722 7.97139 14.6876 7.79876 14.6209 7.63768C14.5542 7.47661 14.4564 7.33025 14.3331 7.20697C14.2098 7.08369 14.0635 6.98589 13.9024 6.91917C13.7413 6.85246 13.5687 6.81812 13.3943 6.81812C13.22 6.81812 13.0474 6.85246 12.8863 6.91917C12.7252 6.98589 12.5788 7.08369 12.4556 7.20697C12.3323 7.33025 12.2345 7.47661 12.1678 7.63768C12.1011 7.79876 12.0667 7.97139 12.0667 8.14574Z" fill="white"/>
<path d="M28.2187 8.14594C28.2187 8.74751 28.4577 9.32445 28.883 9.74983C29.3084 10.1752 29.8854 10.4142 30.4869 10.4142C31.0885 10.4142 31.6655 10.1752 32.0908 9.74983C32.5162 9.32445 32.7552 8.74751 32.7552 8.14594C32.7552 7.54436 32.5162 6.96742 32.0908 6.54204C31.6655 6.11666 31.0885 5.87769 30.4869 5.87769C29.8854 5.87769 29.3084 6.11666 28.883 6.54204C28.4577 6.96742 28.2187 7.54436 28.2187 8.14594Z" fill="black"/>
<path d="M29.1594 8.14574C29.1594 8.32009 29.1937 8.49273 29.2604 8.6538C29.3271 8.81488 29.4249 8.96123 29.5482 9.08451C29.6715 9.20779 29.8179 9.30559 29.9789 9.37231C30.14 9.43903 30.3126 9.47337 30.487 9.47337C30.6613 9.47337 30.834 9.43903 30.995 9.37231C31.1561 9.30559 31.3025 9.20779 31.4258 9.08451C31.549 8.96123 31.6468 8.81488 31.7136 8.6538C31.7803 8.49273 31.8146 8.32009 31.8146 8.14574C31.8146 7.97139 31.7803 7.79876 31.7136 7.63768C31.6468 7.47661 31.549 7.33025 31.4258 7.20697C31.3025 7.08369 31.1561 6.98589 30.995 6.91917C30.834 6.85246 30.6613 6.81812 30.487 6.81812C30.3126 6.81812 30.14 6.85246 29.9789 6.91917C29.8179 6.98589 29.6715 7.08369 29.5482 7.20697C29.4249 7.33025 29.3271 7.47661 29.2604 7.63768C29.1937 7.79876 29.1594 7.97139 29.1594 8.14574Z" fill="white"/>
<path d="M15.1602 7.67554H28.8503V8.61616H15.1602V7.67554Z" fill="black"/>
<path d="M7.39056 15.902H36.4505V19.7666H7.39056V15.902ZM7.39056 21.1641H36.4505V25.026H7.39056V21.1641ZM7.39056 26.4289H27.2109V30.2935H7.39056V26.4289Z" fill="#DCDCDC"/>
</svg>
