<svg width="48" height="48" viewBox="0 0 48 48" fill="none" xmlns="http://www.w3.org/2000/svg">
<g clip-path="url(#clip0_138_457)">
<path d="M30.2003 33.1359V36.9243C30.2003 39.455 30.9799 41.4596 32.0285 42.9922C33.9249 45.7636 36.703 46.9904 37.3456 46.9904C38.3438 46.9904 44.4913 44.032 44.4913 36.9244V33.136C42.0954 32.4793 39.5889 31.4297 37.3456 30.1052C36.9299 30.3507 36.5107 30.5849 36.0876 30.8084C34.2189 31.7951 32.2716 32.5683 30.2003 33.1359Z" fill="#85BF4F"/>
<path d="M30.2002 36.9243V33.1358C32.2715 32.5683 34.2189 31.795 36.0876 30.8083C33.6601 30.7154 31.8341 30.0054 30.7536 27.1248C30.3501 27.381 29.8993 27.6659 29.3911 28.0106C25.8147 30.0756 22.178 30.0717 18.6088 28.011C18.1008 27.6664 17.6497 27.3814 17.2464 27.1248C15.6087 33.2364 3.50873 29.1897 3.50873 42.9918H23.9999L32.0285 42.992C30.9798 41.4595 30.2002 39.4549 30.2002 36.9243Z" fill="#FFCD85"/>
<path d="M18.6088 28.011C22.178 30.0717 25.8148 30.0756 29.3912 28.0106C29.8994 27.6659 30.3501 27.381 30.7534 27.1246C33.0676 25.6518 33.8058 25.1167 34.7057 19.651C34.8763 18.6135 35.301 16.713 35.5509 14.746C32.034 14.6465 30.3216 10.16 30.3216 10.16C25.0893 15.0019 16.2369 12.1505 16.2369 12.1505C15.2998 13.7123 12.449 14.746 12.449 14.746C12.699 16.7132 13.1236 18.6137 13.2942 19.651C14.1941 25.1164 14.9325 25.6517 17.2464 27.1248C17.6496 27.3813 18.1007 27.6665 18.6088 28.011Z" fill="#FFCD85"/>
<path d="M16.2369 12.1506C16.2369 12.1506 25.0894 15.002 30.3216 10.1601C30.3216 10.1601 32.034 14.6467 35.5507 14.7461C35.7787 12.9514 35.861 11.1012 35.4725 9.8003C33.805 4.21749 29.2364 1.01002 24 1.00964C18.7635 1.00964 14.1951 4.21777 12.5273 9.8003C12.1386 11.1012 12.221 12.9514 12.449 14.7461C12.449 14.7461 15.2997 13.7125 16.2369 12.1506Z" fill="#FF6464"/>
<path d="M16.8253 9.55439C16.9903 9.65574 17.1728 9.70411 17.3533 9.70411C17.6925 9.70411 18.0238 9.5333 18.2144 9.22308C18.3112 9.06586 18.414 8.91145 18.5201 8.76445C19.4798 7.43527 20.8135 6.54624 22.3769 6.19345C22.921 6.07064 23.2623 5.53017 23.1397 4.98624C23.0168 4.4423 22.4761 4.10067 21.9325 4.22349C19.8814 4.68633 18.1352 5.8478 16.8827 7.58245C16.7474 7.76977 16.6166 7.96589 16.4941 8.16539C16.202 8.64042 16.3503 9.26227 16.8253 9.55439Z" fill="#000003"/>
<path d="M24.9825 6.08029C24.9866 6.08086 24.9966 6.08217 24.999 6.08254C25.0428 6.08817 25.086 6.09089 25.129 6.09089C25.6272 6.09089 26.0567 5.72104 26.1241 5.21357C26.1974 4.66242 25.8065 4.15504 25.2553 4.07948C25.2385 4.07723 25.222 4.07517 25.2054 4.07329C24.6507 4.0147 24.1539 4.41717 24.0956 4.9717C24.0376 5.52248 24.4338 6.01626 24.9825 6.08029Z" fill="#000003"/>
<path d="M44.7582 32.1619C42.4203 31.5212 39.97 30.4821 37.8591 29.2357C37.5425 29.0487 37.1492 29.0486 36.8325 29.2357C36.5087 29.4268 36.1837 29.6095 35.8572 29.7861C34.1181 29.6829 32.8829 29.2178 32.0182 27.503C34.1094 26.0807 34.8601 24.9288 35.7019 19.8153C35.7544 19.4964 35.8334 19.084 35.9251 18.6067C36.4282 15.9832 37.1888 12.0187 36.4398 9.51159C35.5723 6.60741 33.9263 4.18397 31.6794 2.50331C29.4903 0.865781 26.8347 0.0001875 23.9999 0C21.1651 0 18.5097 0.8655 16.3205 2.50303C14.0736 4.18378 12.4274 6.60713 11.5597 9.51141C10.811 12.0177 11.5714 15.982 12.0745 18.6052C12.1662 19.0833 12.2452 19.496 12.2978 19.8152C13.1444 24.9565 13.8988 26.0932 16.0161 27.5265C15.3421 28.8332 13.8359 29.4736 11.5974 30.3341C9.59559 31.1037 7.32684 31.976 5.54596 33.8199C3.49556 35.9431 2.4989 38.9433 2.4989 42.992C2.4989 43.5496 2.95096 44.0017 3.50859 44.0017H23.9997H31.5118C31.9023 44.5191 32.306 44.9658 32.6918 45.3439C34.3662 46.9845 36.4113 48 37.3455 48C38.28 48 40.3249 46.9844 41.9992 45.3439C43.5967 43.7787 45.5008 41.0477 45.5008 36.9244V33.1357C45.5011 32.6808 45.197 32.2821 44.7582 32.1619ZM13.4947 10.0894C14.9819 5.11163 19.0072 2.01938 23.9998 2.01938C28.993 2.01975 33.0184 5.112 34.505 10.0895C34.7752 10.9937 34.7801 12.2512 34.664 13.5694C32.4597 12.8234 31.2774 9.8325 31.2649 9.80016C31.1453 9.48684 30.8781 9.25331 30.5515 9.177C30.2251 9.10088 29.8819 9.19144 29.6358 9.41916C24.9067 13.7953 16.6285 11.2159 16.5464 11.1896C16.0995 11.0456 15.6127 11.2287 15.3711 11.6312C15.0145 12.2254 14.143 12.8169 13.3103 13.2547C13.2222 12.0523 13.2461 10.9212 13.4947 10.0894ZM14.2905 19.4872C14.2337 19.1419 14.1522 18.7169 14.0579 18.2248C13.9034 17.4197 13.7123 16.423 13.5564 15.3811C14.4033 14.9993 15.742 14.291 16.6248 13.3092C18.7546 13.859 25.2328 15.1263 29.9708 11.7448C30.7132 13.0623 32.1656 15.0374 34.4101 15.6012C34.2607 16.5633 34.0856 17.4775 33.942 18.226C33.8477 18.7175 33.7663 19.142 33.7095 19.4871C32.8709 24.5811 32.3422 24.9173 30.1168 26.3327C29.7446 26.5694 29.324 26.837 28.8555 27.1538C27.2427 28.0792 25.6091 28.5481 23.9997 28.5481C22.3903 28.548 20.7569 28.0791 19.1445 27.1542C18.6763 26.8373 18.2557 26.5698 17.8837 26.3333C17.8518 26.3131 17.8206 26.293 17.7894 26.2732C17.7873 26.2719 17.7851 26.2705 17.783 26.2692C15.6418 24.9065 15.1164 24.5037 14.2905 19.4872ZM23.9999 41.9823H4.542C4.87462 35.0828 8.6579 33.6277 12.322 32.219C14.4399 31.4048 16.6177 30.5668 17.7164 28.6287C17.8226 28.699 17.931 28.7714 18.042 28.8466L18.1039 28.8854C20.0371 30.0016 22.0207 30.5676 23.9995 30.5677C23.9995 30.5677 23.9997 30.5677 23.9998 30.5677C25.9785 30.5677 27.9622 30.0015 29.896 28.885L29.9578 28.8462C30.081 28.7627 30.2006 28.6829 30.318 28.6055C31.0288 29.9203 31.9345 30.701 32.9167 31.163C31.9478 31.5493 30.9569 31.8813 29.9334 32.1617C29.4947 32.2819 29.1907 32.6806 29.1907 33.1356V36.9242C29.1907 37.2884 29.2062 37.6412 29.2344 37.9838H22.9513C22.3937 37.9838 21.9416 38.4358 21.9416 38.9934C21.9416 39.5511 22.3937 40.0031 22.9513 40.0031H29.5746C29.7615 40.7226 30.007 41.3812 30.2903 41.9821H23.9999V41.9823ZM43.4817 36.9243C43.4817 43.3148 38.1207 45.8224 37.3457 45.9762C36.8585 45.8795 34.5596 44.8522 32.919 42.5156C32.8848 42.4519 32.8438 42.3925 32.7972 42.3379C32.1577 41.3813 31.6327 40.2153 31.3775 38.8163C31.3754 38.805 31.3738 38.7937 31.3714 38.7824C31.2678 38.2031 31.2097 37.5847 31.2097 36.9241V33.8957C33.0691 33.3362 34.8332 32.6125 36.5542 31.7034C36.5559 31.7025 36.5576 31.7017 36.5594 31.7008C36.8225 31.5617 37.0848 31.4186 37.3461 31.2708C39.2774 32.359 41.3752 33.2561 43.4815 33.8948V36.9241H43.4817V36.9243Z" fill="#000003"/>
<path d="M35.0898 37.8471C34.6955 37.4528 34.0562 37.4528 33.6618 37.8471C33.2676 38.2414 33.2676 38.8807 33.6618 39.2751L35.6328 41.2461C35.8299 41.4432 36.0883 41.5419 36.3468 41.5419C36.6052 41.5419 36.8636 41.4432 37.0606 41.2461L41.0296 37.2774C41.4238 36.883 41.4239 36.2438 41.0296 35.8494C40.6354 35.4551 39.996 35.4551 39.6016 35.8494L36.3468 39.1042L35.0898 37.8471Z" fill="#000003"/>
<path d="M20.0567 37.9839H19.9834C19.4258 37.9839 18.9738 38.4359 18.9738 38.9936C18.9738 39.5512 19.4258 40.0033 19.9834 40.0033H20.0567C20.6143 40.0033 21.0663 39.5512 21.0663 38.9936C21.0663 38.4359 20.6143 37.9839 20.0567 37.9839Z" fill="#000003"/>
<path d="M19.9512 19.9055C20.6394 19.9055 21.2009 19.3442 21.2009 18.6558C21.2009 17.9674 20.6394 17.4062 19.9512 17.4062C19.2628 17.4062 18.7015 17.9675 18.7015 18.6558C18.7015 19.3442 19.2627 19.9055 19.9512 19.9055Z" fill="#000003"/>
<path d="M28.0494 19.9055C28.7377 19.9055 29.2991 19.3442 29.2991 18.6558C29.2991 17.9674 28.7378 17.4062 28.0494 17.4062C27.3612 17.4062 26.7997 17.9675 26.7997 18.6558C26.7997 19.3442 27.3611 19.9055 28.0494 19.9055Z" fill="#000003"/>
</g>
<defs>
<clipPath id="clip0_138_457">
<rect width="48" height="48" fill="white"/>
</clipPath>
</defs>
</svg>
